<svg id="svg" version="1.1" xmlns="http://www.w3.org/2000/svg" xmlns:xlink="http://www.w3.org/1999/xlink"
     width="75" height="50" viewBox="20,150,280,280">
    <g id="svgg">
        <path id="path0" d="M201.297 170.031 C 196.743 171.132,192.454 177.052,185.888 191.297 C 185.505 192.127,184.771 193.709,184.257 194.812 C 177.230 209.880,172.544 223.758,170.321 236.084 L 169.917 238.323 168.298 235.494 C 152.832 208.464,132.490 189.486,104.645 176.107 C 93.424 170.715,87.740 173.906,88.550 185.142 C 89.179 193.867,90.672 205.704,91.971 212.264 C 92.087 212.848,92.297 213.962,92.438 214.741 C 94.065 223.699,98.130 243.621,98.738 245.614 C 98.850 245.980,98.795 246.027,98.435 245.874 C 83.295 239.399,57.598 236.350,45.795 239.626 C 38.623 241.617,35.787 246.112,37.732 252.407 C 39.247 257.314,48.734 276.566,54.873 287.191 C 56.087 289.292,57.137 291.159,57.207 291.342 C 57.309 291.607,56.861 291.704,54.968 291.828 C 53.666 291.913,51.512 292.195,50.180 292.453 C 48.849 292.712,46.963 292.927,45.991 292.932 C 34.555 292.992,30.601 296.089,33.203 302.948 C 47.140 339.694,74.995 366.020,113.561 378.895 C 116.351 379.827,120.926 381.019,124.764 381.815 C 126.911 382.260,127.650 382.381,132.429 383.066 C 135.611 383.521,147.917 383.441,151.415 382.941 C 158.742 381.895,162.763 380.593,165.094 378.512 L 165.920 377.775 165.212 377.942 C 159.652 379.260,154.847 379.320,146.698 378.175 C 118.659 374.236,91.194 362.310,74.110 346.655 C 63.841 337.245,53.976 324.720,40.925 304.519 C 36.282 297.333,36.482 297.972,38.561 296.951 C 39.398 296.540,40.319 296.461,46.698 296.252 C 52.240 296.070,54.460 295.905,56.367 295.532 C 59.661 294.887,59.421 294.818,60.606 296.757 C 80.453 329.239,110.345 357.047,136.557 367.412 C 150.769 373.032,170.266 376.529,182.768 375.700 C 186.758 375.435,187.121 375.221,184.488 374.684 C 181.313 374.036,175.399 372.297,167.925 369.813 C 114.966 352.215,82.479 321.643,56.898 265.330 C 54.079 259.123,50.612 250.960,50.741 250.832 C 51.543 250.029,66.062 249.566,70.637 250.197 C 86.353 252.364,98.883 257.235,113.443 266.839 C 117.667 269.624,121.062 272.262,126.051 276.632 C 129.282 279.463,134.357 284.868,139.051 290.479 C 141.719 293.668,146.294 300.167,149.572 305.425 C 159.403 321.190,168.372 343.543,173.941 366.156 C 174.689 369.191,174.887 369.623,176.098 370.846 C 179.455 374.238,185.217 373.043,186.622 368.664 C 187.356 366.377,187.305 365.857,184.902 351.061 C 184.396 347.948,183.711 343.597,183.379 341.392 C 182.779 337.404,182.527 335.775,182.074 332.960 C 176.947 301.049,175.891 270.133,179.160 247.642 C 179.358 246.279,179.620 244.475,179.742 243.632 C 181.157 233.867,184.589 222.558,189.441 211.675 C 192.529 204.747,196.024 197.973,201.363 188.561 C 204.068 183.795,203.636 183.975,205.689 186.764 C 212.732 196.332,217.367 207.229,221.001 222.759 C 225.343 241.315,225.834 269.831,222.144 289.136 C 220.365 298.441,216.278 311.151,212.016 320.637 C 207.006 331.786,202.266 340.819,193.277 356.348 C 188.001 365.462,187.779 366.743,190.915 369.968 C 195.278 374.455,200.114 371.684,205.029 361.880 C 208.212 355.530,225.696 334.713,237.293 323.467 C 266.652 294.994,291.083 282.188,330.896 274.400 C 333.166 273.955,335.225 273.543,335.471 273.484 C 336.156 273.317,335.874 279.734,335.036 283.373 C 331.208 299.990,316.912 320.970,301.443 332.672 C 300.065 333.714,297.983 335.312,296.816 336.223 C 272.709 355.039,251.452 365.471,217.571 375.111 C 199.561 380.235,200.978 379.982,190.330 379.985 L 182.429 379.988 183.608 380.421 C 184.257 380.660,186.220 381.348,187.970 381.952 C 190.395 382.789,191.713 383.411,193.512 384.570 C 206.811 393.135,239.759 394.482,267.335 387.588 C 291.317 381.593,319.506 367.725,343.055 350.335 C 352.133 343.632,346.490 333.976,331.551 330.649 C 329.216 330.129,323.069 329.245,321.784 329.245 C 320.731 329.245,320.689 329.329,323.099 326.641 C 334.309 314.142,343.048 299.013,346.346 286.394 C 348.985 276.302,348.080 266.045,344.297 263.164 C 339.216 259.296,332.366 259.895,314.151 265.802 C 303.014 269.414,301.179 269.982,301.179 269.814 C 301.179 269.729,301.510 268.977,301.915 268.143 C 305.106 261.565,315.080 238.172,318.097 230.189 C 325.873 209.613,326.541 202.924,321.108 200.037 C 318.863 198.844,311.993 199.414,306.351 201.263 C 305.777 201.451,304.033 201.997,302.476 202.475 C 273.695 211.330,256.784 221.965,235.920 244.329 L 234.720 245.615 234.564 243.503 C 233.224 225.439,229.280 208.534,223.230 194.929 C 215.628 177.833,207.444 168.544,201.297 170.031 M102.358 185.915 C 128.874 197.006,149.883 217.948,164.991 248.349 C 168.253 254.913,167.944 253.492,167.560 260.152 C 166.771 273.840,167.330 291.385,169.238 312.800 C 169.706 318.047,169.679 318.104,168.168 315.094 C 155.739 290.324,137.507 268.906,117.925 256.069 C 114.870 254.067,109.991 251.179,109.662 251.179 C 109.204 251.179,108.748 250.016,108.135 247.288 C 106.907 241.818,105.637 235.730,105.184 233.137 C 103.286 222.284,102.107 214.144,101.170 205.425 C 100.398 198.251,99.297 186.379,99.294 185.208 C 99.292 184.604,99.138 184.568,102.358 185.915 M313.443 210.103 C 313.443 210.625,309.849 222.158,307.440 229.363 C 304.741 237.438,303.488 240.911,300.293 249.175 C 295.867 260.622,289.342 274.849,288.343 275.229 C 287.087 275.707,280.740 278.887,277.532 280.646 C 260.747 289.849,244.231 302.455,227.717 318.669 C 225.120 321.218,222.968 323.279,222.936 323.247 C 222.903 323.216,223.206 322.297,223.609 321.206 C 228.588 307.736,231.471 296.063,233.361 281.722 C 234.215 275.241,234.901 266.550,234.904 262.182 L 234.906 259.388 236.959 256.876 C 254.441 235.488,273.829 221.445,296.108 214.034 C 302.822 211.801,313.443 209.392,313.443 210.103 M321.344 335.426 C 329.672 338.039,335.463 340.638,336.426 342.196 C 336.633 342.531,325.792 350.433,319.104 354.823 C 296.790 369.469,277.127 377.698,256.014 381.227 C 248.094 382.551,237.000 383.641,220.688 384.698 C 216.564 384.965,214.815 384.879,217.733 384.553 C 233.176 382.827,251.665 376.576,268.278 367.463 C 282.361 359.739,305.366 343.665,314.151 335.413 C 315.483 334.161,316.036 333.784,316.392 333.886 C 316.651 333.960,318.880 334.653,321.344 335.426 " stroke="none" fill="#FBF6F3" fill-rule="evenodd"></path><path id="path1" d="M0.000 283.019 L 0.000 566.038 200.000 566.038 L 400.000 566.038 400.000 283.019 L 400.000 0.000 200.000 0.000 L 0.000 0.000 0.000 283.019 M206.439 170.615 C 216.107 175.408,228.783 202.666,232.771 227.241 C 232.919 228.149,233.091 229.210,233.155 229.599 C 233.724 233.090,234.670 241.919,234.670 243.743 C 234.670 245.466,234.306 245.727,239.887 240.003 C 259.494 219.892,276.995 209.665,306.368 201.155 C 318.451 197.654,323.742 198.831,324.798 205.254 C 325.378 208.783,323.745 215.141,318.754 228.774 C 315.894 236.588,307.244 257.033,302.265 267.749 C 301.798 268.754,301.415 269.616,301.415 269.664 C 301.415 269.766,307.175 267.949,315.566 265.201 C 337.232 258.103,345.232 259.054,347.410 268.986 C 350.649 283.760,340.736 307.267,322.920 327.064 C 321.956 328.134,321.314 329.012,321.492 329.014 C 324.211 329.055,332.678 330.621,335.731 331.649 C 346.000 335.106,350.480 342.780,345.524 348.425 C 344.368 349.741,332.838 357.716,326.533 361.559 C 320.740 365.090,318.101 366.613,311.321 370.340 C 309.399 371.396,300.909 375.646,298.703 376.656 C 290.928 380.216,286.454 381.984,279.245 384.343 C 272.932 386.410,264.171 388.654,258.608 389.630 C 255.579 390.161,251.575 390.783,249.646 391.022 C 248.479 391.167,247.099 391.342,246.580 391.411 C 238.161 392.532,225.571 392.384,214.863 391.038 C 203.535 389.614,198.314 388.014,192.836 384.284 C 191.814 383.588,190.876 383.019,190.750 383.019 C 190.450 383.019,182.671 380.282,182.163 379.997 C 181.915 379.858,184.978 379.788,190.472 379.806 C 200.729 379.840,199.790 379.976,210.731 376.882 C 214.882 375.708,219.287 374.482,220.519 374.157 C 228.125 372.153,244.127 366.676,249.388 364.277 C 249.789 364.094,251.710 363.237,253.656 362.373 C 267.082 356.411,281.884 347.441,295.637 336.932 C 296.934 335.941,299.375 334.081,301.061 332.798 C 306.236 328.863,315.081 319.860,319.844 313.679 C 329.365 301.323,335.849 285.782,335.849 275.316 L 335.849 273.597 335.200 273.715 C 304.069 279.407,282.519 287.805,263.325 301.727 C 258.485 305.238,251.585 310.609,249.237 312.695 C 248.813 313.071,246.928 314.742,245.047 316.408 C 230.867 328.971,209.670 353.253,204.952 362.338 C 201.229 369.508,199.137 371.619,195.500 371.880 C 191.686 372.154,188.757 369.127,188.958 365.118 L 189.048 363.325 193.429 355.778 C 213.552 321.110,221.239 301.278,223.595 277.948 C 227.283 241.427,220.339 206.482,205.466 186.721 C 203.628 184.280,204.119 184.000,201.197 189.151 C 196.936 196.663,195.550 199.256,192.811 204.835 C 188.611 213.391,184.369 224.002,183.005 229.363 C 182.906 229.752,182.600 230.901,182.324 231.917 C 177.039 251.397,175.974 280.222,179.397 311.085 C 179.591 312.836,179.843 315.118,179.956 316.156 C 180.376 319.997,181.905 331.002,183.020 338.208 C 183.131 338.921,183.334 340.248,183.471 341.156 C 183.609 342.064,183.988 344.452,184.315 346.462 C 184.641 348.473,185.120 351.445,185.378 353.066 C 185.637 354.688,186.063 357.341,186.326 358.962 C 187.806 368.103,187.221 370.718,183.305 372.458 C 179.150 374.304,174.998 371.597,173.823 366.274 C 173.293 363.875,170.510 354.083,169.029 349.410 C 156.968 311.350,138.220 283.604,113.283 266.910 C 99.592 257.745,86.243 252.498,71.344 250.426 C 66.419 249.741,50.943 250.226,50.943 251.066 C 50.943 251.342,52.699 255.515,55.259 261.321 C 82.533 323.175,116.614 354.433,176.297 372.332 C 180.237 373.513,185.973 374.993,186.629 374.997 C 187.856 375.005,186.499 375.456,184.470 375.715 C 180.154 376.265,168.692 375.531,160.484 374.180 C 122.200 367.878,90.767 343.360,59.552 295.454 C 59.342 295.132,58.991 295.154,56.368 295.658 C 53.915 296.129,52.225 296.260,46.308 296.438 L 39.197 296.651 38.113 297.287 C 36.790 298.062,36.764 297.758,38.371 300.328 C 61.850 337.882,78.793 354.604,105.071 366.156 C 126.095 375.398,153.448 380.939,164.012 378.096 C 165.038 377.820,165.934 377.594,166.004 377.594 C 166.340 377.594,164.390 379.348,163.561 379.791 C 151.936 386.000,128.314 384.734,107.193 376.769 C 98.221 373.386,84.041 365.836,76.444 360.398 C 64.892 352.129,53.268 339.846,45.288 327.476 C 42.233 322.742,38.500 315.788,36.488 311.085 C 35.905 309.723,34.981 307.600,34.434 306.368 C 29.899 296.148,32.077 293.508,45.637 292.784 C 47.064 292.708,49.021 292.491,49.986 292.302 C 50.951 292.113,52.914 291.849,54.348 291.715 C 55.783 291.581,56.989 291.439,57.029 291.398 C 57.070 291.358,56.104 289.589,54.884 287.467 C 49.079 277.375,44.255 267.844,39.374 256.823 C 35.504 248.085,36.352 243.777,42.544 240.722 C 48.109 237.975,60.681 237.261,72.288 239.031 C 76.955 239.743,78.033 239.951,83.726 241.240 C 88.418 242.303,94.654 244.202,98.210 245.651 C 98.600 245.810,98.639 245.758,98.499 245.264 C 98.411 244.950,98.236 244.216,98.112 243.632 C 97.988 243.048,97.721 241.828,97.519 240.920 C 96.730 237.381,92.953 218.585,92.447 215.684 C 88.981 195.809,87.753 183.703,88.774 179.481 C 90.538 172.188,95.698 171.386,106.247 176.767 C 134.278 191.066,153.411 208.975,167.807 234.390 C 169.728 237.782,170.047 238.177,170.047 237.164 C 170.047 236.574,170.093 236.331,171.138 231.368 C 173.065 222.223,177.436 209.548,182.608 198.113 C 183.257 196.678,184.238 194.520,185.019 192.807 C 194.164 172.765,199.540 167.195,206.439 170.615 M99.376 185.318 C 99.439 185.545,99.560 186.686,99.643 187.854 C 99.914 191.640,100.736 200.234,101.413 206.368 C 102.212 213.599,103.611 223.460,104.743 229.835 C 105.768 235.608,107.148 242.407,108.261 247.170 C 108.549 248.402,108.838 249.656,108.904 249.955 C 108.969 250.255,109.248 250.638,109.523 250.806 C 109.798 250.973,111.350 251.889,112.972 252.841 C 132.080 264.059,148.732 281.418,162.467 304.439 C 163.653 306.426,164.623 308.092,164.623 308.141 C 164.623 308.190,164.979 308.845,165.415 309.598 C 165.851 310.351,166.926 312.347,167.804 314.033 C 169.602 317.485,169.686 317.615,169.490 316.627 C 169.412 316.238,169.140 313.426,168.885 310.377 C 166.986 287.686,166.635 274.958,167.471 259.151 L 167.729 254.269 165.740 250.173 C 150.488 218.757,128.908 196.962,102.191 185.991 C 99.179 184.755,99.221 184.765,99.376 185.318 M312.264 210.130 C 311.810 210.227,310.696 210.440,309.788 210.603 C 282.878 215.441,254.735 233.646,235.939 258.373 L 235.221 259.316 234.936 265.212 C 233.947 285.649,230.486 303.061,223.854 320.968 C 223.450 322.057,223.164 322.907,223.218 322.854 C 223.272 322.802,224.996 321.114,227.050 319.104 C 232.250 314.014,235.321 311.155,239.858 307.181 C 254.151 294.660,268.965 284.587,284.106 277.095 L 288.848 274.749 290.089 272.221 C 291.987 268.355,294.884 261.958,297.055 256.840 C 301.590 246.144,307.489 229.548,311.641 215.802 C 312.484 213.013,313.245 210.545,313.334 210.318 C 313.507 209.871,313.488 209.868,312.264 210.130 M314.505 335.297 C 305.550 343.608,285.287 357.930,270.532 366.375 C 266.174 368.870,259.285 372.299,254.400 374.406 C 249.229 376.637,245.367 378.076,239.858 379.825 C 234.085 381.659,226.163 383.507,220.939 384.238 C 219.807 384.397,218.913 384.558,218.951 384.596 C 219.015 384.660,227.560 384.124,230.778 383.855 C 231.557 383.789,233.520 383.626,235.142 383.492 C 243.804 382.776,249.565 382.126,255.096 381.243 C 280.783 377.138,304.807 365.891,333.314 344.625 C 336.859 341.980,336.647 342.473,334.806 341.160 C 332.095 339.226,329.057 337.972,321.108 335.511 C 319.163 334.908,317.327 334.313,317.029 334.189 C 316.173 333.831,316.004 333.906,314.505 335.297 " stroke="none" fill="none" fill-rule="evenodd"></path><path id="path2" d="M317.040 199.219 C 317.267 199.279,317.639 199.279,317.866 199.219 C 318.093 199.160,317.907 199.111,317.453 199.111 C 316.999 199.111,316.813 199.160,317.040 199.219 M324.837 207.193 C 324.839 207.972,324.883 208.262,324.935 207.838 C 324.988 207.414,324.986 206.777,324.933 206.423 C 324.879 206.068,324.836 206.415,324.837 207.193 M245.858 234.021 L 245.165 234.788 245.932 234.095 C 246.646 233.449,246.807 233.255,246.624 233.255 C 246.584 233.255,246.239 233.600,245.858 234.021 M57.252 238.146 C 57.933 238.193,59.048 238.193,59.729 238.146 C 60.410 238.098,59.853 238.059,58.491 238.059 C 57.129 238.059,56.571 238.098,57.252 238.146 M224.111 246.698 C 224.111 247.152,224.160 247.338,224.219 247.111 C 224.279 246.884,224.279 246.512,224.219 246.285 C 224.160 246.058,224.111 246.244,224.111 246.698 M61.380 249.938 C 61.996 249.986,63.004 249.986,63.620 249.938 C 64.236 249.889,63.732 249.849,62.500 249.849 C 61.268 249.849,60.764 249.889,61.380 249.938 M67.748 250.163 C 67.975 250.222,68.346 250.222,68.573 250.163 C 68.800 250.103,68.614 250.055,68.160 250.055 C 67.706 250.055,67.521 250.103,67.748 250.163 M167.508 257.783 C 167.508 258.237,167.556 258.423,167.615 258.196 C 167.675 257.969,167.675 257.597,167.615 257.370 C 167.556 257.143,167.508 257.329,167.508 257.783 M234.981 262.500 C 234.981 263.343,235.024 263.688,235.076 263.267 C 235.129 262.845,235.129 262.155,235.076 261.733 C 235.024 261.312,234.981 261.657,234.981 262.500 M167.084 273.821 C 167.084 277.258,167.117 278.665,167.157 276.946 C 167.198 275.227,167.198 272.415,167.157 270.696 C 167.117 268.977,167.084 270.383,167.084 273.821 M224.124 270.873 C 224.126 271.521,224.172 271.759,224.226 271.400 C 224.280 271.042,224.279 270.511,224.223 270.221 C 224.167 269.931,224.122 270.224,224.124 270.873 M347.950 275.354 C 347.952 276.132,347.996 276.422,348.048 275.998 C 348.101 275.574,348.100 274.937,348.046 274.583 C 347.992 274.229,347.949 274.575,347.950 275.354 M177.413 286.557 C 177.413 287.011,177.462 287.196,177.521 286.969 C 177.580 286.742,177.580 286.371,177.521 286.144 C 177.462 285.917,177.413 286.103,177.413 286.557 M167.517 291.509 C 167.517 292.093,167.563 292.332,167.619 292.040 C 167.675 291.748,167.675 291.271,167.619 290.979 C 167.563 290.687,167.517 290.926,167.517 291.509 M167.984 299.175 C 167.987 299.693,168.035 299.878,168.091 299.585 C 168.148 299.291,168.146 298.867,168.087 298.641 C 168.028 298.416,167.981 298.656,167.984 299.175 M228.647 317.512 L 227.476 318.750 228.715 317.580 C 229.865 316.492,230.061 316.274,229.885 316.274 C 229.848 316.274,229.291 316.831,228.647 317.512 M306.716 327.889 L 304.835 329.835 306.781 327.954 C 308.588 326.206,308.834 325.943,308.662 325.943 C 308.626 325.943,307.751 326.819,306.716 327.889 M97.288 327.358 C 97.794 327.877,98.262 328.302,98.327 328.302 C 98.392 328.302,98.030 327.877,97.524 327.358 C 97.017 326.840,96.549 326.415,96.484 326.415 C 96.420 326.415,96.781 326.840,97.288 327.358 M321.805 328.125 L 320.873 329.127 321.875 328.195 C 322.807 327.328,322.986 327.123,322.807 327.123 C 322.769 327.123,322.318 327.574,321.805 328.125 M99.646 329.717 C 100.285 330.366,100.861 330.896,100.926 330.896 C 100.991 330.896,100.521 330.366,99.882 329.717 C 99.243 329.068,98.667 328.538,98.603 328.538 C 98.538 328.538,99.007 329.068,99.646 329.717 M88.434 333.078 C 89.012 333.694,89.516 334.198,89.554 334.198 C 89.731 334.198,89.544 333.986,88.502 333.009 L 87.382 331.958 88.434 333.078 M93.514 338.208 C 94.153 338.856,94.729 339.387,94.794 339.387 C 94.858 339.387,94.389 338.856,93.750 338.208 C 93.111 337.559,92.535 337.028,92.471 337.028 C 92.406 337.028,92.875 337.559,93.514 338.208 M187.093 365.802 C 187.093 366.386,187.139 366.624,187.195 366.333 C 187.251 366.041,187.251 365.563,187.195 365.271 C 187.139 364.979,187.093 365.218,187.093 365.802 M175.295 375.870 C 175.522 375.929,175.893 375.929,176.120 375.870 C 176.347 375.811,176.162 375.762,175.708 375.762 C 175.254 375.762,175.068 375.811,175.295 375.870 M156.309 378.940 C 156.601 378.996,157.078 378.996,157.370 378.940 C 157.662 378.884,157.423 378.838,156.840 378.838 C 156.256 378.838,156.017 378.884,156.309 378.940 M185.558 379.888 C 185.982 379.940,186.619 379.939,186.974 379.886 C 187.328 379.832,186.981 379.789,186.203 379.790 C 185.425 379.791,185.135 379.835,185.558 379.888 M140.160 383.664 C 140.780 383.713,141.736 383.712,142.283 383.663 C 142.830 383.613,142.323 383.574,141.156 383.574 C 139.988 383.575,139.540 383.615,140.160 383.664 M224.351 384.361 C 224.578 384.420,224.950 384.420,225.177 384.361 C 225.404 384.301,225.218 384.253,224.764 384.253 C 224.310 384.253,224.124 384.301,224.351 384.361 M227.300 392.152 C 227.721 392.204,228.411 392.204,228.833 392.152 C 229.254 392.099,228.909 392.057,228.066 392.057 C 227.223 392.057,226.878 392.099,227.300 392.152 M234.841 392.151 C 235.260 392.203,236.003 392.204,236.492 392.153 C 236.982 392.102,236.639 392.060,235.731 392.059 C 234.823 392.057,234.423 392.099,234.841 392.151 " stroke="none" fill="#ffffff" fill-rule="evenodd"></path><path id="path3" d="M142.807 202.123 C 143.313 202.642,143.781 203.066,143.846 203.066 C 143.911 203.066,143.549 202.642,143.042 202.123 C 142.536 201.604,142.068 201.179,142.003 201.179 C 141.938 201.179,142.300 201.604,142.807 202.123 M146.452 205.719 C 147.031 206.335,147.535 206.840,147.573 206.840 C 147.750 206.840,147.563 206.628,146.521 205.651 L 145.401 204.599 146.452 205.719 M138.090 210.142 C 139.121 211.179,140.018 212.028,140.083 212.028 C 140.148 212.028,139.357 211.179,138.325 210.142 C 137.294 209.104,136.397 208.255,136.332 208.255 C 136.267 208.255,137.058 209.104,138.090 210.142 M243.739 236.144 L 242.807 237.146 243.809 236.214 C 244.360 235.701,244.811 235.250,244.811 235.212 C 244.811 235.033,244.606 235.212,243.739 236.144 M63.502 238.370 C 63.729 238.429,64.101 238.429,64.328 238.370 C 64.555 238.311,64.369 238.262,63.915 238.262 C 63.461 238.262,63.275 238.311,63.502 238.370 M239.968 239.917 L 238.797 241.156 240.035 239.985 C 241.186 238.898,241.382 238.679,241.206 238.679 C 241.168 238.679,240.611 239.236,239.968 239.917 M250.575 242.040 L 249.882 242.807 250.649 242.114 C 251.363 241.468,251.524 241.274,251.341 241.274 C 251.301 241.274,250.956 241.619,250.575 242.040 M224.619 257.783 C 224.619 259.404,224.657 260.068,224.703 259.257 C 224.749 258.446,224.749 257.120,224.703 256.309 C 224.657 255.498,224.619 256.162,224.619 257.783 M335.440 260.782 C 335.798 260.837,336.329 260.835,336.619 260.779 C 336.909 260.723,336.616 260.679,335.967 260.681 C 335.318 260.682,335.081 260.728,335.440 260.782 M177.654 262.382 C 177.656 262.901,177.705 263.085,177.761 262.792 C 177.818 262.499,177.815 262.074,177.756 261.849 C 177.697 261.623,177.651 261.863,177.654 262.382 M177.218 276.769 C 177.218 278.844,177.254 279.662,177.298 278.585 C 177.342 277.509,177.342 275.811,177.298 274.812 C 177.254 273.813,177.218 274.693,177.218 276.769 M139.858 274.602 C 139.858 274.643,140.203 274.988,140.625 275.369 L 141.392 276.061 140.699 275.295 C 140.053 274.580,139.858 274.420,139.858 274.602 M128.302 278.892 C 128.742 279.346,129.155 279.717,129.220 279.717 C 129.285 279.717,128.978 279.346,128.538 278.892 C 128.098 278.438,127.685 278.066,127.620 278.066 C 127.555 278.066,127.862 278.438,128.302 278.892 M131.604 282.193 C 132.044 282.647,132.457 283.019,132.522 283.019 C 132.587 283.019,132.280 282.647,131.840 282.193 C 131.400 281.739,130.986 281.368,130.922 281.368 C 130.857 281.368,131.164 281.739,131.604 282.193 M167.508 289.387 C 167.508 289.841,167.556 290.027,167.615 289.800 C 167.675 289.573,167.675 289.201,167.615 288.974 C 167.556 288.747,167.508 288.933,167.508 289.387 M177.649 292.689 C 177.649 293.143,177.698 293.328,177.757 293.101 C 177.816 292.874,177.816 292.503,177.757 292.276 C 177.698 292.049,177.649 292.235,177.649 292.689 M46.285 292.851 C 46.512 292.911,46.884 292.911,47.111 292.851 C 47.338 292.792,47.152 292.743,46.698 292.743 C 46.244 292.743,46.058 292.792,46.285 292.851 M45.106 296.401 C 45.852 296.448,47.073 296.448,47.818 296.401 C 48.564 296.354,47.954 296.316,46.462 296.316 C 44.971 296.316,44.360 296.354,45.106 296.401 M238.902 321.875 L 238.090 322.759 238.974 321.947 C 239.797 321.190,239.967 320.991,239.787 320.991 C 239.747 320.991,239.349 321.389,238.902 321.875 M310.960 323.880 L 309.552 325.354 311.026 323.946 C 311.837 323.172,312.500 322.508,312.500 322.472 C 312.500 322.298,312.267 322.510,310.960 323.880 M232.067 328.715 L 230.778 330.071 232.134 328.782 C 232.880 328.073,233.491 327.462,233.491 327.426 C 233.491 327.250,233.265 327.455,232.067 328.715 M70.519 343.278 C 71.746 344.511,72.803 345.519,72.868 345.519 C 72.933 345.519,71.982 344.511,70.755 343.278 C 69.528 342.046,68.470 341.038,68.406 341.038 C 68.341 341.038,69.292 342.046,70.519 343.278 M60.142 346.108 C 60.582 346.563,60.995 346.934,61.060 346.934 C 61.124 346.934,60.817 346.563,60.377 346.108 C 59.937 345.654,59.524 345.283,59.459 345.283 C 59.394 345.283,59.701 345.654,60.142 346.108 M64.387 350.310 C 64.387 350.350,64.732 350.695,65.153 351.076 L 65.920 351.769 65.227 351.002 C 64.581 350.288,64.387 350.127,64.387 350.310 M177.302 375.874 C 177.596 375.931,178.020 375.929,178.246 375.870 C 178.471 375.811,178.231 375.764,177.712 375.767 C 177.193 375.770,177.009 375.818,177.302 375.874 M181.076 375.874 C 181.369 375.931,181.794 375.929,182.019 375.870 C 182.245 375.811,182.005 375.764,181.486 375.767 C 180.967 375.770,180.782 375.818,181.076 375.874 M153.479 378.940 C 153.771 378.996,154.248 378.996,154.540 378.940 C 154.832 378.884,154.593 378.838,154.009 378.838 C 153.426 378.838,153.187 378.884,153.479 378.940 M158.550 378.936 C 158.777 378.995,159.148 378.995,159.375 378.936 C 159.602 378.877,159.416 378.828,158.962 378.828 C 158.508 378.828,158.323 378.877,158.550 378.936 M182.174 379.921 C 182.291 380.111,183.491 380.008,183.491 379.807 C 183.491 379.758,183.166 379.717,182.769 379.717 C 182.372 379.717,182.104 379.809,182.174 379.921 M192.512 380.115 C 192.739 380.175,193.110 380.175,193.337 380.115 C 193.564 380.056,193.379 380.008,192.925 380.008 C 192.471 380.008,192.285 380.056,192.512 380.115 M135.672 383.417 C 135.899 383.477,136.271 383.477,136.498 383.417 C 136.725 383.358,136.539 383.309,136.085 383.309 C 135.631 383.309,135.445 383.358,135.672 383.417 M146.170 383.422 C 146.464 383.478,146.888 383.476,147.114 383.417 C 147.339 383.358,147.099 383.312,146.580 383.314 C 146.061 383.317,145.877 383.365,146.170 383.422 " stroke="none" fill="#ffffff" fill-rule="evenodd"></path><path id="path4" d="M249.160 243.455 L 248.467 244.222 249.233 243.529 C 249.948 242.883,250.108 242.689,249.926 242.689 C 249.886 242.689,249.541 243.034,249.160 243.455 M247.157 245.460 L 246.344 246.344 247.229 245.532 C 247.715 245.085,248.113 244.687,248.113 244.647 C 248.113 244.467,247.914 244.637,247.157 245.460 M234.960 260.377 C 234.960 260.831,235.009 261.017,235.068 260.790 C 235.128 260.563,235.128 260.192,235.068 259.965 C 235.009 259.738,234.960 259.923,234.960 260.377 M230.601 392.155 C 231.282 392.203,232.397 392.203,233.078 392.155 C 233.759 392.107,233.202 392.068,231.840 392.068 C 230.478 392.068,229.920 392.107,230.601 392.155 " stroke="none" fill="#ffffff" fill-rule="evenodd"></path></g></svg>